<svg width="1435" height="401" viewBox="0 0 1800 401" fill="none" xmlns="http://www.w3.org/2000/svg">
  <path d="M109.44 308.52C92.64 308.52 77.52 305.64 64.08 299.88C50.64 293.88 40.08 285.48 32.4 274.68C24.72 263.88 20.88 251.28 20.88 236.88H64.8C65.76 247.68 69.96 256.56 77.4 263.52C85.08 270.48 95.76 273.96 109.44 273.96C123.6 273.96 134.64 270.6 142.56 263.88C150.48 256.92 154.44 248.04 154.44 237.24C154.44 228.84 151.92 222 146.88 216.72C142.08 211.44 135.96 207.36 128.52 204.48C121.32 201.6 111.24 198.48 98.28 195.12C81.96 190.8 68.64 186.48 58.32 182.16C48.24 177.6 39.6 170.64 32.4 161.28C25.2 151.92 21.6 139.44 21.6 123.84C21.6 109.44 25.2 96.84 32.4 86.04C39.6 75.24 49.68 66.96 62.64 61.2C75.6 55.44 90.6 52.56 107.64 52.56C131.88 52.56 151.68 58.68 167.04 70.92C182.64 82.92 191.28 99.48 192.96 120.6H147.6C146.88 111.48 142.56 103.68 134.64 97.2C126.72 90.72 116.28 87.48 103.32 87.48C91.56 87.48 81.96 90.48 74.52 96.48C67.08 102.48 63.36 111.12 63.36 122.4C63.36 130.08 65.64 136.44 70.2 141.48C75 146.28 81 150.12 88.2 153C95.4 155.88 105.24 159 117.72 162.36C134.28 166.92 147.72 171.48 158.04 176.04C168.6 180.6 177.48 187.68 184.68 197.28C192.12 206.64 195.84 219.24 195.84 235.08C195.84 247.8 192.36 259.8 185.4 271.08C178.68 282.36 168.72 291.48 155.52 298.44C142.56 305.16 127.2 308.52 109.44 308.52ZM274.506 136.8C281.466 127.68 290.946 120 302.946 113.76C314.946 107.52 328.506 104.4 343.626 104.4C360.906 104.4 376.626 108.72 390.786 117.36C405.186 125.76 416.466 137.64 424.626 153C432.786 168.36 436.866 186 436.866 205.92C436.866 225.84 432.786 243.72 424.626 259.56C416.466 275.16 405.186 287.4 390.786 296.28C376.626 304.92 360.906 309.24 343.626 309.24C328.506 309.24 315.066 306.24 303.306 300.24C291.546 294 281.946 286.32 274.506 277.2V400.32H233.466V107.64H274.506V136.8ZM395.106 205.92C395.106 192.24 392.226 180.48 386.466 170.64C380.946 160.56 373.506 153 364.146 147.96C355.026 142.68 345.186 140.04 334.626 140.04C324.306 140.04 314.466 142.68 305.106 147.96C295.986 153.24 288.546 160.92 282.786 171C277.266 181.08 274.506 192.96 274.506 206.64C274.506 220.32 277.266 232.32 282.786 242.64C288.546 252.72 295.986 260.4 305.106 265.68C314.466 270.96 324.306 273.6 334.626 273.6C345.186 273.6 355.026 270.96 364.146 265.68C373.506 260.16 380.946 252.24 386.466 241.92C392.226 231.6 395.106 219.6 395.106 205.92ZM648.45 201.96C648.45 209.4 647.97 216.12 647.01 222.12H495.45C496.65 237.96 502.53 250.68 513.09 260.28C523.65 269.88 536.61 274.68 551.97 274.68C574.05 274.68 589.65 265.44 598.77 246.96H643.05C637.05 265.2 626.13 280.2 610.29 291.96C594.69 303.48 575.25 309.24 551.97 309.24C533.01 309.24 515.97 305.04 500.85 296.64C485.97 288 474.21 276 465.57 260.64C457.17 245.04 452.97 227.04 452.97 206.64C452.97 186.24 457.05 168.36 465.21 153C473.61 137.4 485.25 125.4 500.13 117C515.25 108.6 532.53 104.4 551.97 104.4C570.69 104.4 587.37 108.48 602.01 116.64C616.65 124.8 628.05 136.32 636.21 151.2C644.37 165.84 648.45 182.76 648.45 201.96ZM605.61 189C605.37 173.88 599.97 161.76 589.41 152.64C578.85 143.52 565.77 138.96 550.17 138.96C536.01 138.96 523.89 143.52 513.81 152.64C503.73 161.52 497.73 173.64 495.81 189H605.61ZM664.357 206.64C664.357 186.24 668.437 168.36 676.597 153C684.997 137.4 696.517 125.4 711.157 117C725.797 108.6 742.597 104.4 761.557 104.4C785.557 104.4 805.357 110.16 820.957 121.68C836.797 132.96 847.477 149.16 852.997 170.28H808.717C805.117 160.44 799.357 152.76 791.437 147.24C783.517 141.72 773.557 138.96 761.557 138.96C744.757 138.96 731.317 144.96 721.237 156.96C711.397 168.72 706.477 185.28 706.477 206.64C706.477 228 711.397 244.68 721.237 256.68C731.317 268.68 744.757 274.68 761.557 274.68C785.317 274.68 801.037 264.24 808.717 243.36H852.997C847.237 263.52 836.437 279.6 820.597 291.6C804.757 303.36 785.077 309.24 761.557 309.24C742.597 309.24 725.797 305.04 711.157 296.64C696.517 288 684.997 276 676.597 260.64C668.437 245.04 664.357 227.04 664.357 206.64ZM930.977 141.12V250.92C930.977 258.36 932.657 263.76 936.017 267.12C939.617 270.24 945.617 271.8 954.017 271.8H979.217V306H946.817C928.337 306 914.177 301.68 904.337 293.04C894.497 284.4 889.577 270.36 889.577 250.92V141.12H866.177V107.64H889.577V58.32H930.977V107.64H979.217V141.12H930.977ZM1047.28 136.44C1053.28 126.36 1061.2 118.56 1071.04 113.04C1081.12 107.28 1093 104.4 1106.68 104.4V146.88H1096.24C1080.16 146.88 1067.92 150.96 1059.52 159.12C1051.36 167.28 1047.28 181.44 1047.28 201.6V306H1006.24V107.64H1047.28V136.44ZM1119.93 205.92C1119.93 186 1124.01 168.36 1132.17 153C1140.57 137.64 1151.85 125.76 1166.01 117.36C1180.41 108.72 1196.25 104.4 1213.53 104.4C1229.13 104.4 1242.69 107.52 1254.21 113.76C1265.97 119.76 1275.33 127.32 1282.29 136.44V107.64H1323.69V306H1282.29V276.48C1275.33 285.84 1265.85 293.64 1253.85 299.88C1241.85 306.12 1228.17 309.24 1212.81 309.24C1195.77 309.24 1180.17 304.92 1166.01 296.28C1151.85 287.4 1140.57 275.16 1132.17 259.56C1124.01 243.72 1119.93 225.84 1119.93 205.92ZM1282.29 206.64C1282.29 192.96 1279.41 181.08 1273.65 171C1268.13 160.92 1260.81 153.24 1251.69 147.96C1242.57 142.68 1232.73 140.04 1222.17 140.04C1211.61 140.04 1201.77 142.68 1192.65 147.96C1183.53 153 1176.09 160.56 1170.33 170.64C1164.81 180.48 1162.05 192.24 1162.05 205.92C1162.05 219.6 1164.81 231.6 1170.33 241.92C1176.09 252.24 1183.53 260.16 1192.65 265.68C1202.01 270.96 1211.85 273.6 1222.17 273.6C1232.73 273.6 1242.57 270.96 1251.69 265.68C1260.81 260.4 1268.13 252.72 1273.65 242.64C1279.41 232.32 1282.29 220.32 1282.29 206.64ZM1407.83 39.6V306H1366.79V39.6H1407.83Z" fill="white" />
</svg>
  