<svg width="512" height="512" viewBox="0 0 512 512" fill="none" xmlns="http://www.w3.org/2000/svg">
  <path fill-rule="evenodd" clip-rule="evenodd" d="M415.806 417.513C458.189 374.943 482 317.204 482 257C482 196.796 458.189 139.058 415.806 96.4867C373.423 53.916 315.939 30 256 30C196.061 30 138.577 53.916 96.1939 96.4867C53.8106 139.058 30 196.796 30 257C30 317.204 53.8106 374.943 96.1939 417.513C138.577 460.084 196.061 484 256 484C315.939 484 373.423 460.084 415.806 417.513ZM308.117 100C372.035 121.68 418 182.083 418 253.23C418 342.578 345.493 415 256.039 415C166.585 415 94.0774 342.578 94 253.23C94 182.083 140.004 121.68 203.883 100C174.903 117.622 155.519 149.466 155.519 185.832C155.519 241.25 200.517 286.194 256 286.194C311.483 286.194 356.481 241.25 356.481 185.832C356.481 149.466 337.097 117.584 308.117 100Z" fill="#DC143C" />
</svg>