<svg width="512" height="512" viewBox="0 0 512 512" fill="none" xmlns="http://www.w3.org/2000/svg">
  <rect width="512" height="512" fill="crimson" />
  <g filter="url(#filter0_d)">
    <path fill-rule="evenodd" clip-rule="evenodd" d="M385.534 387.108C419.889 352.601 439.189 305.8 439.189 257C439.189 208.2 419.889 161.399 385.534 126.892C351.18 92.3856 304.585 73 256 73C207.415 73 160.82 92.3856 126.465 126.892C92.1108 161.399 72.8105 208.2 72.8105 257C72.8105 305.8 92.1108 352.601 126.465 387.108C160.82 421.614 207.415 441 256 441C304.585 441 351.18 421.614 385.534 387.108ZM298.245 129.74C350.055 147.313 387.313 196.274 387.313 253.944C387.313 326.367 328.54 385.07 256.031 385.07C183.522 385.07 124.75 326.367 124.687 253.944C124.687 196.274 161.977 147.313 213.755 129.74C190.265 144.024 174.553 169.836 174.553 199.313C174.553 244.233 211.027 280.664 256 280.664C300.973 280.664 337.447 244.233 337.447 199.313C337.447 169.836 321.735 143.993 298.245 129.74Z" fill="white" />
  </g>
  <defs>
    <filter id="filter0_d" x="71.8105" y="73" width="380.379" height="385" filterUnits="userSpaceOnUse" color-interpolation-filters="sRGB">
      <feFlood flood-opacity="0" result="BackgroundImageFix" />
      <feColorMatrix in="SourceAlpha" type="matrix" values="0 0 0 0 0 0 0 0 0 0 0 0 0 0 0 0 0 0 127 0" />
      <feOffset dx="6" dy="10" />
      <feGaussianBlur stdDeviation="3.5" />
      <feColorMatrix type="matrix" values="0 0 0 0 0 0 0 0 0 0 0 0 0 0 0 0 0 0 0.25 0" />
      <feBlend mode="normal" in2="BackgroundImageFix" result="effect1_dropShadow" />
      <feBlend mode="normal" in="SourceGraphic" in2="effect1_dropShadow" result="shape" />
    </filter>
  </defs>
</svg>