<svg data-name="Layer 1" fill="crimson" xmlns="http://www.w3.org/2000/svg" viewBox="0 0 24 24">
  <path d="M21.781 20.367a7.494 7.494 0 002.2-4.729 7.96 7.96 0 00-5.621-8.277 1.089 1.089 0 01-.721-.734 7.96 7.96 0 00-13.07-3.473L1.707.293A1 1 0 00.293 1.707l22 22a1 1 0 001.414-1.414zM9.1 3.065a5.992 5.992 0 016.624 4.155 3.1 3.1 0 002.044 2.052 5.971 5.971 0 014.213 6.21 5.406 5.406 0 01-1.627 3.458L5.982 4.568A5.952 5.952 0 019.1 3.065zm7.893 18.763a1 1 0 01-.887 1.1 12.216 12.216 0 01-1.321.07h-9.1A5.843 5.843 0 01.057 18.3a5.446 5.446 0 012.881-5.65 7.646 7.646 0 01-.858-4.789 1 1 0 011.981.278 5.968 5.968 0 00.6 3.585 2 2 0 01-.791 2.7 3.467 3.467 0 00-1.832 3.6A3.809 3.809 0 005.683 21h9.1a10.245 10.245 0 001.107-.059 1.008 1.008 0 011.104.887z" />
</svg>